<?xml version="1.0" encoding="UTF-8" standalone="no"?>
<svg width="298px" height="344px" viewBox="0 0 298 344" version="1.1" xmlns="http://www.w3.org/2000/svg" xmlns:xlink="http://www.w3.org/1999/xlink">
    <!-- Generator: Sketch 39.1 (31720) - http://www.bohemiancoding.com/sketch -->
    <title>Slice 1</title>
    <desc>Created with Sketch.</desc>
    <defs></defs>
    <g id="Page-1" stroke="none" stroke-width="1" fill="none" fill-rule="evenodd">
        <g id="california_white" fill="#FFFFFF">
            <path d="M142.2,317.5 L141.3,317.1 L141.2,317 L140.7,316.7 L140.4,316.9 L140.1,317 L139.7,317 L139.3,316.8 L139.6,317.8 L140.3,318.5 L141.2,319 L142.3,319.2 L143.2,318.9 L142.9,318.2 L142.2,317.5 L142.2,317.5 Z M140,291.9 L140.3,291.5 L140.3,291 L140.2,290.9 L139.4,290.3 L139.2,290.2 L138.9,290.2 L138.5,290.4 L137.4,291.4 L137.2,291.5 L136.9,291.6 L134.4,290.5 L133.8,290.4 L132.6,290.5 L132.1,290.4 L130.5,289.6 L129.7,289.6 L129.5,289.6 L129.3,289.7 L129,289.9 L128.8,290.1 L129,290.2 L129.5,290.3 L129.9,290.6 L130.2,291 L130.5,291.4 L130.1,292.3 L130.8,293 L132,293.4 L133,293.5 L139.4,292.2 L140,291.9 L140,291.9 Z M154.9,309.8 L154.9,309.8 L154.7,309.9 L154.4,310 L154.3,310.1 L154.4,310.2 L154.5,310.5 L154.6,310.7 L154.6,310.7 L154.6,310.7 L154.9,310.1 L154.9,309.8 L154.9,309.8 L154.9,309.8 Z M126,292.3 L125.7,291.5 L125.7,290.6 L125.3,291 L124.8,291.2 L123.1,291.3 L122.8,291.4 L122.5,291.6 L122.1,291.8 L121.5,291.8 L120.3,291.6 L119.8,291.8 L120.3,292.3 L121,293.1 L121.6,293.9 L121.8,294.5 L122.1,294.9 L122.7,295.3 L123.4,295.6 L123.9,295.5 L124.2,295.3 L124.5,295.3 L124.8,295.4 L125.3,295.5 L125.6,295.4 L127.1,294.4 L127.5,294 L127.7,293.5 L127.8,292.7 L127,292.9 L126,292.3 L126,292.3 Z M117.8,290.7 L117.5,290.5 L117.2,290.4 L116.9,290.3 L116.7,290.1 L116.5,289.8 L116.2,289.5 L116.1,290.2 L115.7,290.4 L114.8,290.5 L114.3,290.9 L114.2,291.3 L114.4,291.4 L114.8,291 L115.6,291.4 L116.4,291.5 L118.2,291.5 L118,291 L117.8,290.7 L117.8,290.7 Z M144.4,291.9 L144,291.8 L143.8,291.7 L143.5,291.6 L143.2,291.6 L143.1,291.7 L143.2,291.8 L143.7,292 L144,292 L144.4,292.1 L144.8,292 L144.8,291.9 L144.4,291.9 L144.4,291.9 Z M296,281.3 L296,280.8 L295.1,280.2 L294.8,279.8 L294.5,279.6 L294,279.3 L291.6,277.5 L291.2,277 L291,277 L290.4,276.6 L290.3,276.5 L290.1,276.2 L290,276.1 L289.9,276.1 L289.8,276.1 L289.4,276.1 L289.2,276 L289.1,275.8 L289,275.6 L288.9,275.2 L288.9,274.9 L288.9,274.9 L289.1,274.4 L289.2,273.9 L288.9,273.6 L288.9,273.6 L288.8,272.9 L288.5,272.6 L288.1,272.3 L287.8,271.7 L287.8,271.5 L287.8,270.7 L287.8,270.4 L287.7,270.2 L287.6,270.1 L285.7,266.2 L284.9,266.1 L284.3,265.7 L283.9,265 L283.8,264 L283.7,263.6 L283.5,263 L283.2,262.5 L282.8,262.3 L282.3,262.1 L282.1,261.7 C282,260.3 281.9,258.8 281.8,257.4 C275.3,251.3 268.7,245.3 262.3,239.1 C256,233 249.7,227 243.4,220.9 C237.1,214.8 230.7,208.6 224.4,202.5 C224.1,202.2 223.7,201.8 223.4,201.5 C216.9,195.4 210.4,189.3 203.9,183.2 C197.8,177.4 191.6,171.7 185.5,165.9 C184.1,164.5 182.6,163.2 181.2,161.8 C174.5,155.9 167.8,150 161,144 C154.3,138.1 147.6,132.2 141,126.2 C136.4,122.1 131.8,118 127.3,113.9 C127.2,105 127.3,96.2 127.3,87.3 L127.3,62.6 L127.3,35 L127.3,7.8 L127.3,0.7 L5.5,0.7 L5.8,1.4 L5.9,1.8 L5.9,2.2 L5.8,5.8 L5.6,6.5 L4.9,8 L4.1,9 L4.1,9.2 L5.1,9.6 L6.5,10.7 L7.7,12 L7.8,13.1 L7.8,13.7 L8.2,14.6 L8.5,15.5 L8.7,15.9 L8.8,16.1 L8.8,17.1 L8.8,17.5 L9,17.9 L9.2,18.2 L9.5,18.4 L9.8,18.6 L9.4,19.3 L9.6,20.5 L10.1,22.8 L10,23.9 L9.4,26.1 L9.1,28.1 L8.5,30.7 L8,32 L7.7,33.4 L7.2,34 L7.1,34.6 L7.1,35.3 L7.2,35.8 L7.2,36.3 L8.1,37.8 L8.4,38.6 L8.4,39.5 L6.7,45.1 L5.4,47.1 L5.1,47.9 L5.6,47.6 L6.1,46.9 L7.4,44.6 L7.6,44.5 L8.8,44.6 L9.1,44.5 L9.4,44.7 L9.5,44.7 L9,45.6 L8.5,45.9 L7.9,46 L7.1,46.3 L6.7,46.8 L6,48.3 L5.7,48.6 L5.6,50.1 L5.3,50.8 L4.6,50.5 L4.2,50.1 L4.2,50 L4.4,49.2 L4.5,48.9 L3.6,50.1 L3.1,51 L2.7,52.2 L2.8,52.3 L2.9,52.5 L3,52.7 L2.9,52.8 L2.8,52.8 L2.7,52.9 L2.6,53 L2.5,53.4 L1.7,54.9 L1.5,55.5 C1.3,56.2 1.1,56.8 1,57.5 L0.9,58.1 L0.8,58.7 L0.5,59.3 L0.3,59.9 L0.4,60.4 L0.8,61.2 L1.7,63.5 L1.9,64.4 L1.6,66.1 L1.7,67 L2.2,67.4 L2.6,67.6 L6.4,71.1 L8,72.1 L8.5,72.6 L9.6,74.3 L9.7,74.6 L9.8,75.4 L9.9,75.7 L10.1,75.8 L10.8,76 L11.1,76.1 L12,77 L16.1,83.1 L16.3,83.7 L16.4,85.3 L16.7,86.2 L16.9,86.7 L17.1,86.9 L17.4,87 L17.6,87.3 L17.7,87.7 L17.9,88 L18.1,88.6 L18,91.2 L18.8,93.4 L18.7,93.8 L18.3,94.2 L18,95 L17.7,96.6 L17.4,99.2 L17,100.5 L17.5,101.8 L17.5,102.5 L17.8,102.8 L18,103.3 L18.3,104.3 L18.6,106 L18.9,106.8 L19.4,107.1 L20.5,109.6 L20.5,110 L20.5,111.2 L20.6,111.6 L20.9,112.3 L21,112.7 L20.9,113.6 L20.6,114.1 L20.2,114.5 L19.8,115.1 L19.9,116.2 L20.7,117.4 L22.7,119.6 L24.2,120.8 L24.5,121.2 L24.8,121.7 L25.4,122.3 L26.5,123.1 L27.4,124 L32.3,130.5 L33.3,131.4 L36.8,133.2 L37.7,134.1 L38.4,136.3 L39.1,137 L39.1,138.8 L39.4,139.4 L39.4,139.2 L39.4,138.4 L41.1,139.5 L41.6,140.1 L41.7,140.4 L41.8,141.1 L41.9,141.4 L42.7,142.4 L44.1,144.6 L45.3,146 L45.8,146.8 L46,147.7 L45.5,147 L44.8,146.3 L44.1,145.5 L43.8,144.5 L43.5,143.9 L42,142.3 L41.4,141.8 L42.3,143.9 L42.4,144.9 L41.4,148.5 L40.6,149.9 L40.4,150.5 L41.2,150.6 L41.4,150.5 L41.6,150.4 L41.6,150.3 L41.6,150.2 L41.9,149.7 L42.1,149.4 L42.3,149.1 L42.7,148.8 L42.5,148.7 L42.4,148.6 L42.1,148.1 L42.3,148 L42.5,147.9 L42.7,147.7 L42.9,147.4 L43.4,148.5 L44.2,149.2 L46,150.1 L46.2,150.2 L46.6,150.5 L46.9,150.9 L47.2,151.9 L47.5,152.2 L48.2,152.6 L48.6,152.9 L49.3,153.9 L49.7,154.1 L50,153.9 L50.1,153.4 L50,152.8 L51.6,154.1 L52.5,155 L53.5,155.7 L53.9,156.1 L54.4,156.5 L55.1,156.7 L55.7,156.6 L56.1,156.2 L56.1,155.6 L55.8,155.1 L55.6,154.7 L56,154.3 L56.2,154.9 L56.6,155.1 L56.9,154.9 L56.8,154.3 L56.5,153.8 L55.6,153 L55.2,152.5 L55.4,152.4 L55.6,152.1 L55.8,152 L55.5,151.6 L55.5,151.2 L55.8,150.9 L56.6,150.6 L56.3,150.3 L55.5,149.8 L55.3,149.1 L55.3,147 L55.1,146 L56.2,146 L57,145.8 L57.6,145.3 L58.1,144.3 L61.2,146 L61.7,146.6 L61.8,146.9 L62.1,147.2 L62.5,147.4 L63.4,147.6 L64.9,148.2 L65.5,148.2 L65.9,148.1 L66.2,147.9 L67.2,146.9 L67.4,146.7 L67.5,146.4 L67.7,145.7 L67.8,145.5 L68.1,145.3 L68.6,145 L69.1,144.8 L69.5,144.8 L70,145.2 L70,145.7 L69.5,146.9 L70.8,147.3 L72.2,147.4 L72,147.8 L71.9,148 L71.7,148.1 L72.1,148.2 L72.6,148.2 L73.1,148.1 L73.5,147.9 L73.5,147.5 L73.8,147.4 L74.8,147.6 L75.2,147.6 L76.3,147.4 L76.9,147.1 L77.5,146.4 L78.4,145 L78.6,145 L78.5,145.9 L78.2,146.6 L77.8,147.1 L77.2,147.5 L76.9,147.6 L76.6,147.7 L76.3,147.8 L76.1,148 L76,148.3 L76,148.6 L76.1,148.8 L76.3,148.9 L77.6,148.7 L78.3,148.4 L78.6,148 L78.6,147.5 L78.7,147.2 L79.1,146.7 L79.3,146.6 L79.5,146.6 L79.7,146.7 L79.9,146.8 L80,146.7 L80.2,146.4 L80.3,146.3 L81,146.3 L81.5,146.4 L81.9,146.6 L83.9,148.3 L84.4,148.5 L84.7,148.8 L85.2,149.4 L85.6,150 L85.6,150.3 L85.1,150.1 L84.5,149.6 L84,149 L83.7,148.5 L83.2,148.6 L82.5,148.3 L81.5,147.5 L81.4,147.3 L81.3,147 L81,147 L80.7,146.8 L80.4,146.8 L80.2,147 L80,147.2 L79.8,147.3 L79.1,147.3 L78.8,147.4 L78.7,147.7 L78.7,148 L78.6,148.4 L78.5,148.7 L78.4,148.8 L78.1,148.8 L77.8,148.9 L77.6,149.1 L77.5,149.3 L77.6,149.4 L78.5,149.7 L77.9,150 L77.3,149.9 L76.1,149.4 L72.6,149 L71.2,148.5 L67.7,148.1 L67,148.3 L65.7,149.2 L65,149.4 L64.4,149.2 L63.3,148.3 L62.7,148.1 L62,148.2 L61.6,148.5 L60.2,149.9 L59.9,150 L59.5,150 L59.2,149.9 L58.9,149.8 L58.7,149.8 L58.5,150.6 L58.2,151.2 L57.7,151.6 L57.2,151.7 L58,152.9 L59.1,153.4 L60.1,154.1 L60.4,155.8 L60,157.2 L60,158 L60.5,158.4 L61.1,158.5 L62.6,159.1 L63.2,159.4 L62,159.9 L62.2,159.9 L62.6,160.1 L62.4,160.6 L62.6,160.7 L63.3,160.6 L63.7,160.8 L63.9,161.1 L64.4,162.5 L65.6,166.7 L66,167.5 L66.5,168 L67.2,168 L67.4,168.1 L67.5,168.3 L67.7,168.6 L67.7,168.8 L67.7,169.1 L67.7,169.3 L67.8,169.4 L68,169.4 L68.5,169.6 L68.1,170 L67.5,170.1 L66.9,170 L66.3,169.8 L66,169.4 L65.7,168.8 L65.4,168.3 L65,168.3 L64.7,168.1 L64.4,167.8 L64.1,167.6 L63.5,167.9 L63.3,167.6 L63.2,167.2 L63.1,166.9 L62.7,166.6 L62.4,166.6 L62.2,166.4 L62.1,165.8 L62,166 L61,166.2 L60.7,166.2 L60.2,165.5 L60,165.3 L59.8,165.2 L59.3,165.2 L59,165 L58.6,164.7 L58.5,164.4 L58.5,164.1 L58.3,163.7 L58.3,163.3 L58.5,161 L58.6,160.7 L58.8,160.5 L59.2,160.3 L58.7,160.3 L58.6,160.1 L58.6,159.8 L58.6,159.5 L58.2,158 L57.9,157.6 L57.3,157.5 L56.1,157.5 L55.5,157.6 L55.1,157.9 L54.6,159.3 L54.8,160.9 L55.2,162.5 L55.3,163.9 L55.1,164.6 L54.6,165.7 L54.5,166.6 L54.7,168.2 L55,168.5 L55.4,168.6 L55.8,168.6 L56.1,168.7 L56.5,169.3 L56.8,170.9 L57.1,171.6 L57.5,172.2 L57.8,172.9 L58,173.7 L58.1,174.4 L58,176 L57.7,177.4 L57.7,178.7 L58.4,180 L59.3,180.7 L59.7,181.2 L59.9,181.9 L60.2,182.3 L62,183.7 L63.6,185.8 L64.5,186.7 L66.7,188 L67.3,188.2 L67.9,188.3 L68.6,188.2 L69.2,188 L69.8,188 L70.3,188.4 L71.3,187.8 L72.1,187.7 L72.9,188.1 L73.7,189.1 L75.4,192.3 L76.1,193.3 L75.5,195.5 L75.8,195.6 L76,195.7 L76.2,195.6 L76.5,195.5 L76.6,195.8 L76.6,196 L76.6,196.2 L76.5,196.5 L75.8,196.3 L75.4,196.3 L75.2,196.7 L75,198.4 L74.8,199.1 L74.5,199.8 L74.1,200.3 L73.5,200.6 L73,200.3 L72.5,199.8 L71.9,199.6 L71.4,199.9 L71,200.5 L70.5,201.8 L71,202 L71.4,202.3 L71.7,202.5 L72,202.8 L72.1,203.3 L72,203.6 L71.4,203.7 L71.3,204 L71.4,204.6 L72.1,206.3 L72.4,207.8 L72.5,209.3 L72.5,209.6 L72.9,210.6 L73,211 L73,211.3 L73.1,211.5 L73.3,211.8 L73.6,212 L73.9,212.1 L74.1,212.3 L74.2,212.8 L74.3,213.2 L74.6,213.6 L75,213.9 L75.9,214.1 L78.7,216 L79.5,216.9 L81,219.3 L81.5,220.6 L81.8,221.2 L82.2,221.5 L82.9,221.6 L83.5,221.8 L84,222.2 L84.4,222.7 L84.7,223.3 L85,224 L85.2,224.8 L85.3,225.6 L85.5,226.3 L85.9,226.8 L86.9,227.7 L87.6,228.7 L88,229.2 L89,229.7 L89.3,230.5 L89.6,232 L90.7,234.2 L91.3,234.3 L93,235.2 L94,235.4 L94.8,236.3 L95.7,238 L96.7,239.2 L97.5,240.3 L98.3,241.1 L99.1,241.7 L101.1,242 L101.8,242.3 L102.1,242.7 L102.3,243.2 L102.6,244.2 L102.8,244.6 L103.4,245.4 L103.6,245.9 L103.1,246.2 L102.7,246.3 L102.5,246.1 L102.8,245.5 L102.6,245.3 L101.8,247.6 L101.8,248.9 L101.9,249.5 L102.2,250 L102.9,250.7 L104.6,251.4 L105.4,251.9 L105.5,251.7 L106,251.5 L106.6,251.4 L107.1,251.5 L107.3,251.7 L107.8,252.3 L108,252.4 L108.5,252.6 L108.7,252.8 L109,253.9 L109.1,255.1 L109,256.5 L108.8,257.9 L107.9,260.1 L107.8,260.9 L107.9,261.2 L108.8,262 L109,262.3 L109.2,262.6 L109.3,262.9 L109.4,263.3 L109.4,264.1 L109,265.5 L108.9,266.3 L109.3,266.8 L109.6,267.4 L109.8,268.1 L109.7,269 L109.5,269.6 L109.3,270.1 L109.1,270.7 L108.8,271.8 L108.5,272.4 L108.7,272.8 L109.1,273.2 L109.8,273.4 L110.7,273.6 L111.4,273.6 L112.5,274.5 L113.3,275.7 L114,277 L115.2,277 L117.9,276.4 L122.2,276.1 L123.6,276.2 L124.8,276.7 L126.3,276.3 L128,276.9 L131,278.4 L131.5,278.3 L132.1,278 L132.7,277.8 L133.2,278 L133.6,278.3 L134.3,278.7 L135,279 L135.5,279.1 L135.8,278.9 L136,278.6 L136.3,278.3 L137.7,278 L138.3,278.2 L139,278.2 L139.4,278.2 L139.7,278.3 L140.3,278.9 L142.1,279.7 L143.1,280 L146.6,283.1 L147,283.3 L147.7,283.3 L148,283.4 L148.3,283.6 L148.4,283.9 L148.4,284.3 L148.5,284.6 L148.9,284.8 L148.7,285.2 L148.8,285.7 L149.1,286.2 L149.4,286.6 L149.5,286.8 L149.6,287.2 L149.7,287.4 L149.8,287.5 L150.1,287.6 L150.3,287.7 L151.6,288.9 L152.4,289.3 L153.3,289.4 L152.9,289.3 L152.6,289.2 L152.4,289.2 L152.3,288.9 L153.3,289.1 L155.7,290.6 L158.6,291.4 L160,291.6 L161.1,292.1 L161.6,292.6 L162.1,292.3 L162.7,292.1 L166.9,291.6 L167.3,291.6 L167.6,291.7 L167.8,291.7 L168.1,291.6 L168.5,291.3 L169.2,291.5 L170.1,292.1 L171,292.9 L172.1,294.6 L172.8,296.2 L173.4,297.5 L173.6,298.1 L173.7,298.6 L173.7,299.7 L173.5,300.2 L173.1,300.7 L173,301.3 L173.6,302.1 L173.8,302.2 L174.1,302.3 L174.4,302.3 L174.7,302.2 L175,302.1 L175.3,302.4 L175.6,302.8 L175.9,303 L176.2,303.1 L176.5,303.2 L176.8,303.3 L177.1,303.2 L177.3,303 L177.3,302.7 L177.3,302.4 L177.5,301.4 L177.7,301.2 L178.1,301.1 L178.3,301 L178.6,300.9 L178.9,300.8 L179.6,301.3 L180.1,301.3 L180.7,301.2 L181.5,301.3 L182,301.5 L185.9,305.4 L186.9,306.2 L190.3,308 L191.7,309.1 L192.9,310.6 L193.5,310.9 L194.8,311.7 L195.3,312.1 L197,313.9 L199.7,315.8 L203.9,321.5 L205.4,324.7 L206,326.4 L206.1,327 L206.4,327.4 L207.2,330.9 L207.2,331.5 L206.9,332.2 L206.6,332.6 L206.4,333 L206.4,333.7 L207.1,334.8 L207.2,335.3 L207.2,336 L207,337.5 L207.1,337.9 L207.4,338.5 L207.5,338.9 L207.6,338.6 L207.7,337.5 L208,337.1 L208.4,336.9 L208.6,336.9 L209.1,337 L209.6,337.3 L210.2,337.6 L210.5,337.9 L211,338.6 L211.4,339.4 L211.5,340 L211.3,340.3 L211,340.2 L210.8,339.7 L210.4,339 L210.1,338.4 L209.8,338.1 L209.7,337.6 L209.2,337.4 L208.8,337.4 L208.5,337.8 L208.3,338.1 L209.1,338.1 L209.7,338.5 L210.2,339.3 L210.7,340.3 L210.8,341.2 L210.7,342 L210.9,343 L211.1,343.2 L211.1,343.2 C219.9,342.4 228.7,341.6 237.6,340.8 C246.4,340 255.2,339.2 264.1,338.4 C269.4,337.9 274.7,337.4 280.1,337 L280.1,337 L280.2,336.6 L281.3,335.8 L284.3,336.4 L285.5,336.1 L285.8,335.6 L285.8,335 L285.8,334.4 L285.9,333.8 L286.3,333.3 L287.4,332.6 L287.7,332.2 L287.8,331.5 L287.3,329.3 L287.3,328.9 L287.4,328.6 L287.4,328.3 L287.3,327.9 L286.5,326.7 L285.5,326.2 L282.9,326 L281.8,325.5 L280.9,324.3 L281,323.1 L281.4,321.8 L281.5,320.3 L281.2,318.3 L281,317.8 L280.1,316.8 L280,316.3 L280.3,315.3 L280.6,314.9 L280.7,314.6 L280.5,314.2 L280.3,313.9 L280,313.5 L279.9,313.1 L280.2,312.9 L281.6,312.8 L282.3,312.6 L282.8,312.2 L283.9,310.2 L284.2,309.4 L284.5,309 L285.1,308.4 L285.5,307.9 L285.6,307.7 L285.7,307.2 L285.5,306.4 L285.5,305.9 L285.8,305.7 L285.9,305.5 L285.9,305.1 L285.9,304.4 L286,303.6 L286.3,303.1 L286.6,302.7 L286.8,302.2 L286.5,301.6 L286.4,301.2 L286.6,301 L286.7,300.8 L286.7,300.4 L286.7,300 L286.6,299.8 L286.2,299.4 L286.1,298.6 L286.1,297.7 L286,297.2 L286.5,296.8 L286.7,296.5 L286.7,296.2 L286.1,295.5 L285.9,295.1 L285.8,294.7 L286,293.9 L286.5,293.4 L287.6,292.6 L288.1,292.1 L288.6,291.5 L288.9,290.8 L289.1,289.3 L289.4,288.7 L289.9,288.2 L290.9,287.9 L293.8,285.8 L294.4,285.6 L295.3,284.4 L296.3,283.5 L297.2,282.8 L297.4,282.3 L296,281.3 L296,281.3 Z M174,312.6 L171.5,311.6 L171,311.5 L169.1,310.3 L168.3,310.1 L167.6,310.2 L167.4,310.7 L167.7,311.1 L168.4,311.5 L169.1,311.7 L169.7,311.8 L170.5,312 L170.8,312.5 L170.9,313.9 L171.1,314.7 L171.4,315.3 L171.8,315.7 L172.4,315.8 L172.7,315.7 L173.4,315.4 L173.7,315.3 L174.1,315.4 L175.1,316 L175.7,316.1 L176.2,315.9 L176.3,315.4 L174.6,312.9 L174,312.6 L174,312.6 Z M172.7,331.2 L171.6,329.8 L170.2,328.7 L169.6,328.1 L169.2,327.2 L169,327 L168.8,326.7 L168.6,326.3 L168.5,326 L168.4,325.7 L168.1,325.6 L167.7,325.5 L167.3,325.3 L167.3,326.1 L167.7,327 L168.2,327.8 L168.7,329.1 L169.8,330.6 L170.3,331.8 L170.9,332.3 L171.6,332.7 L172.1,332.9 L172.4,332.9 L172.6,332.8 L172.8,332.7 L173,332.6 L173.8,332.6 L174.2,332.5 L174.5,332.3 L173.2,331.3 L172.7,331.2 L172.7,331.2 Z M40.6,161.3 L40.4,161.5 L40.5,161.6 L40.5,161.7 L40.5,161.6 L40.5,161.6 L40.5,161.7 L40.6,161.3 L40.6,161.3 L40.6,161.3 L40.6,161.3 Z M56.9,155.2 L56.9,155.3 L56.8,155.3 L56.7,155.5 L56.7,155.8 L56.7,155.8 L56.7,155.8 L56.9,155.9 L57.1,155.8 L57.3,155.4 L57.3,155.4 L57.3,155.4 L56.9,155.2 L56.9,155.2 Z M58.5,156.6 L58.6,157 L58.6,157 L58.6,157 L58.9,157.4 L58.9,157.3 L58.9,157.3 L58.9,157.3 L58.7,157.2 L58.8,156.6 L58.8,156.6 L58.8,156.6 L58.5,156.6 L58.5,156.6 Z" id="Shape"></path>
        </g>
    </g>
</svg>