<?xml version="1.0" encoding="utf-8"?>
<!-- Generator: Adobe Illustrator 19.1.0, SVG Export Plug-In . SVG Version: 6.00 Build 0)  -->
<svg version="1.1" id="Layer_1" xmlns="http://www.w3.org/2000/svg" xmlns:xlink="http://www.w3.org/1999/xlink" x="0px" y="0px"
	 viewBox="0 0 300 300" style="enable-background:new 0 0 300 300;" xml:space="preserve">
<style type="text/css">
	.st0{fill:#FFFFFF;stroke:#05A3C6;stroke-width:10;stroke-miterlimit:10;}
	.st1{fill:#05A3C6;}
	.st2{fill:none;stroke:#05A3C6;stroke-width:5;stroke-linecap:round;stroke-miterlimit:10;}
</style>
<rect x="79.8" y="69.7" class="st0" width="140.4" height="172.4"/>
<g>
	<path class="st1" d="M115,136.6c-5.6-0.5-9.7-2.6-12.5-5.5l4.1-5.7c2,2.1,4.8,3.9,8.4,4.6v-8.4c-5.5-1.4-11.4-3.4-11.4-10.6
		c0-5.4,4.2-9.9,11.4-10.7v-4.9h5v5c4.3,0.5,7.9,2.1,10.8,4.7l-4.2,5.5c-1.9-1.8-4.2-2.9-6.6-3.4v7.5c5.5,1.4,11.6,3.5,11.6,10.7
		c0,5.9-3.8,10.4-11.6,11.2v4.8h-5C115,141.4,115,136.6,115,136.6z M115,113.3v-6.5c-2.4,0.3-3.7,1.6-3.7,3.4
		C111.2,111.8,112.7,112.7,115,113.3z M120,122.8v7.1c2.6-0.5,3.9-2.1,3.9-3.7C123.9,124.4,122.3,123.5,120,122.8z"/>
</g>
<line class="st2" x1="105" y1="175.5" x2="195" y2="175.5"/>
<line class="st2" x1="105" y1="195.5" x2="195" y2="195.5"/>
<line class="st2" x1="105" y1="215.5" x2="195" y2="215.5"/>
</svg>
