<?xml version="1.0" encoding="utf-8"?>
<!-- Generator: Adobe Illustrator 19.1.0, SVG Export Plug-In . SVG Version: 6.00 Build 0)  -->
<svg version="1.1" id="Layer_1" xmlns="http://www.w3.org/2000/svg" xmlns:xlink="http://www.w3.org/1999/xlink" x="0px" y="0px"
	 viewBox="-255 334 100 125" style="enable-background:new -255 334 100 125;" xml:space="preserve">
<style type="text/css">
	.st0{fill:#FFFFFF;}
</style>
<path class="st0" d="M-158.4,410l-37.8-65.5l0,0c-0.5-1-1.1-1.9-1.9-2.7c-3.8-3.8-10-3.8-13.8,0c-0.7,0.7-1.3,1.5-1.7,2.3v0
	l-37.8,65.5v0c-0.6,0.9-1.1,1.9-1.4,3c-1.4,5.2,1.7,10.6,6.9,12c0.9,0.3,1.9,0.4,2.8,0.3l75.6,0v0c3.6,0.3,7.2-1.5,9.2-4.9
	C-156.4,416.8-156.5,413-158.4,410z M-200.5,410.3c-1.3,1.2-2.8,1.8-4.6,1.8c-1.8,0-3.3-0.6-4.6-1.8c-1.3-1.2-2-2.7-2-4.4
	c0-1.7,0.7-3.2,2-4.5c1.3-1.3,2.8-1.9,4.6-1.9c1.7,0,3.3,0.6,4.6,1.9c1.3,1.3,2,2.7,2,4.5C-198.6,407.6-199.2,409.1-200.5,410.3z
	 M-199,372c-0.3,1.5-0.7,3.3-1.2,5.4c-0.5,1.9-1,4.4-1.6,7.3c-0.6,2.9-1.3,6.5-2,10.8h-2.6c-0.7-4.3-1.3-7.9-2-10.8
	c-0.6-2.9-1.2-5.3-1.6-7.2c-0.4-1.8-0.8-3.5-1.2-5.2c-0.4-1.7-0.5-3-0.5-3.9c0-1.7,0.6-3.2,1.9-4.5c1.3-1.2,2.9-1.8,4.7-1.8
	c1.8,0,3.4,0.6,4.7,1.8c1.3,1.2,2,2.7,2,4.5C-198.5,369.3-198.6,370.5-199,372z"/>
</svg>
