<?xml version="1.0" encoding="utf-8"?>
<!-- Generator: Adobe Illustrator 18.1.1, SVG Export Plug-In . SVG Version: 6.00 Build 0)  -->
<svg version="1.1" id="Layer_1" xmlns="http://www.w3.org/2000/svg" xmlns:xlink="http://www.w3.org/1999/xlink" x="0px" y="0px"
	 viewBox="0 0 300 300" enable-background="new 0 0 300 300" xml:space="preserve">
<g>
	<g>
		<polygon fill="#FFFFFF" points="90.8,195.5 70,195.5 70,110.2 119.9,110.2 119.9,164.4 174.8,164.4 174.8,195.5 128.4,195.5 
			90.8,229.1 		"/>
		<path fill="#05A3C6" d="M114.9,115.2v54.2h54.9v21h-43.4l-30.6,27.4v-27.4H75v-75.3H114.9 M124.9,105.2h-10H75H65v10v75.3v10h10
			h10.8v17.4v22.4l16.7-14.9l27.8-24.9h39.5h10v-10v-21v-10h-10h-44.9v-44.2V105.2L124.9,105.2z"/>
	</g>
	<g>
		<polygon fill="#FFFFFF" points="176.9,167.1 117.2,167.1 117.2,77.1 230,77.1 230,167.1 214.3,167.1 214.3,200.7 		"/>
		<path fill="#05A3C6" d="M225,82.1v80h-15.7v27.4l-30.5-27.4h-56.6v-80H225 M235,72.1h-10H122.2h-10v10v80v10h10H175l27.6,24.8
			l16.7,15v-22.4v-17.4h5.7h10v-10v-80V72.1L235,72.1z"/>
	</g>
</g>
</svg>
