<?xml version="1.0" encoding="utf-8"?>
<!-- Generator: Adobe Illustrator 19.1.0, SVG Export Plug-In . SVG Version: 6.00 Build 0)  -->
<svg version="1.1" id="Layer_1" xmlns="http://www.w3.org/2000/svg" xmlns:xlink="http://www.w3.org/1999/xlink" x="0px" y="0px"
	 viewBox="-99 88 100 125" style="enable-background:new -99 88 100 125;" xml:space="preserve">
<style type="text/css">
	.st0{fill:#FFFFFF;}
</style>
<path class="st0" d="M-49,93c-23.2,0-42,18.8-42,42c0,10.4,3.9,20.4,10.9,28.2l-4.5,14.9L-86,183l16.7-11.3
	c6.2,3.5,13.2,5.3,20.4,5.3c23.2,0,42-18.8,42-42C-7,111.8-25.8,93-49,93z M-49,173.3c-7,0-13.8-1.9-19.7-5.5l-0.8-0.5l-10,6.8
	l2.6-8.7l0.9-3.2l-0.6-0.6c-6.9-7.2-10.7-16.6-10.7-26.6c0-21.1,17.2-38.3,38.3-38.3c21.1,0,38.3,17.2,38.3,38.3
	C-10.7,156.1-27.9,173.3-49,173.3z"/>
<path class="st0" d="M-37.1,138.4c-3.1,3.1-2.9,7.1-6,6.6c-5.3-1-14.8-10.4-15.7-15.7c-0.6-3.1,3.4-2.9,6.6-6
	c3.1-3.1-6.6-12.6-9.7-12.8c-3.5-0.3-7.7,6.1-8.9,8.7c-0.2,0.5-0.3,0.8-0.4,1c0,0.2-0.1,0.4-0.1,0.7c0,6.6,6.7,18.4,12.5,24.2
	c5.8,5.8,17.6,12.5,24.2,12.5c0.3,0,0.5-0.1,0.7-0.1c0.1,0,0.5-0.1,1-0.4c2.5-1.2,9-5.4,8.7-8.9C-24.6,145-34,135.3-37.1,138.4z"/>
</svg>
